# AST/ASF file generated using VICON BodyLanguage
# -----------------------------------------------
:version 1.10
:name VICON
:units
  mass 1.0
  length 0.45
  angle deg
:documentation
   .ast/.asf automatically generated from VICON data using
   VICON BodyBuilder and BodyLanguage model FoxedUp or BRILLIANT.MOD
:root
   order TX TY TZ RX RY RZ
   axis XYZ
   position 0 0 0  
   orientation 0 0 0 
:bonedata
  begin
     id 1 
     name lhipjoint
     direction 0.64773 -0.699417 0.302095 
     length 2.48597 
     axis 0 0 0  XYZ
  end
  begin
     id 2 
     name lfemur
     direction 0.34202 -0.939693 0  
     length 6.71947  
     axis 0 0 20  XYZ
    dof rx ry rz
    limits (-160.0 20.0)
           (-70.0 70.0)
           (-60.0 70.0)
  end
  begin
     id 3 
     name ltibia
     direction 0.34202 -0.939693 0   
     length 8.08777   
     axis 0 0 20   XYZ
    dof rx
    limits (-10.0 170.0)
  end
  begin
     id 4 
     name lfoot
     direction 0.0808503 -0.222134 0.971658   
     length 2.08264   
     axis -90 7.62852e-016 20   XYZ
    dof rx rz
    limits (-45.0 90.0)
           (-70.0 20.0)
  end
  begin
     id 5 
     name ltoes
     direction 1.53502e-011 -4.22007e-011 1   
     length 1.04662   
     axis -90 7.62852e-016 20   XYZ
    dof rx
    limits (-90.0 20.0)
  end
  begin
     id 6 
     name rhipjoint
     direction -0.610924 -0.726792 0.313919   
     length 2.39233  
     axis 0 0 0  XYZ 
  end
  begin
     id 7 
     name rfemur
     direction -0.34202 -0.939693 0   
     length 6.96955   
     axis 0 0 -20   XYZ
    dof rx ry rz
    limits (-160.0 20.0)
           (-70.0 70.0)
           (-70.0 60.0)
  end
  begin
     id 8 
     name rtibia
     direction -0.34202 -0.939693 0   
     length 8.19584   
     axis 0 0 -20   XYZ
    dof rx
    limits (-10.0 170.0)
 end
 begin
     id 9 
     name rfoot
     direction -0.077777 -0.213691 0.9738   
     length 2.07539  
     axis -90 -7.62852e-016 -20   XYZ
    dof rx rz
    limits (-45.0 90.0)
           (-20.0 70.0)
  end
  begin
     id 10 
     name rtoes
     direction -1.53558e-011 -4.22006e-011 1   
     length 1.04381   
     axis -90 -7.62852e-016 -20   XYZ
    dof rx
    limits (-90.0 20.0)
  end
  begin
     id 11 
     name lowerback
     direction -0.00971646 0.996074 0.0879841   
     length 1.67643   
     axis 0 0 0   XYZ
    dof rx ry rz
    limits (-20.0 45.0)
           (-30.0 30.0)
           (-30.0 30.0)
  end
  begin
     id 12 
     name upperback
     direction 0.0127391 0.991676 0.128127   
     length 1.63741   
     axis 0 0 0   XYZ
    dof rx ry rz
    limits (-20.0 45.0)
           (-30.0 30.0)
           (-30.0 30.0)
  end
  begin
     id 13 
     name thorax
     direction 0.0167583 0.996049 0.0872067   
     length 1.65931   
     axis 0 0 0   XYZ
    dof rx ry rz
    limits (-20.0 45.0)
           (-30.0 30.0)
           (-30.0 30.0)
  end
  begin
     id 14 
     name lowerneck
     direction -0.0317829 0.998312 0.0486079   
     length 1.79021   
     axis 0 0 0   XYZ
    dof rx ry rz
    limits (-20.0 45.0)
           (-30.0 30.0)
           (-30.0 30.0)
  end
  begin
     id 15 
     name upperneck
     direction 0.0896851 0.972452 -0.215159   
     length 1.78797   
     axis 0 0 0   XYZ
    dof rx ry rz
    limits (-20.0 45.0)
           (-30.0 30.0)
           (-30.0 30.0)
  end
  begin
     id 16
     name head
     direction 0.0310949 0.996503 -0.0775582  
     length 1.81549  
     axis 0 0 0   XYZ
    dof rx ry rz
    limits (-20.0 45.0)
           (-30.0 30.0)
           (-30.0 30.0)
  end
  begin
     id 17 
     name lclavicle
     direction 0.853638 0.502051 -0.138733  
     length 3.31627  
     axis 0 0 0   XYZ
    dof ry rz
    limits (-20.0 10.0)
           (0.0 20.0)
  end
  begin
     id 18 
     name lhumerus
     direction 1 -4.48962e-011 -1.41788e-018   
     length 5.54893   
     axis 180 -30 -90   XYZ
    dof rx ry rz
    limits (-60.0 90.0)
           (-90.0 90.0)
           (-90.0 90.0)
  end
  begin
     id 19
     name lradius
     direction 1 -4.48962e-011 -4.95754e-027   
     length 3.02898   
     axis 180 -30 -90   XYZ
    dof rx
    limits (-10.0 170.0)
  end
  begin
     id 20
     name lwrist
     direction 1 -4.48952e-011 -1.03764e-026   
     length 1.51449   
     axis 9.09556e-015 90 90   XYZ
    dof ry
    limits (-180.0 0.0)
 end
  begin
     id 21 
     name lhand
     direction 1 -4.4902e-011 -2.07528e-026   
     length 0.640951   
     axis 1.3242e-014 90 90   XYZ
    dof rx rz
    limits (-90.0 90.0)
           (-45.0 45.0)
  end
  begin
     id 22 
     name lfingers
     direction 1 -4.49014e-011 -4.15056e-026   
     length 0.516751   
     axis 2.64841e-014 90 90   XYZ
    dof rx
    limits (0.0 90.0)
  end
  begin
     id 23
     name lthumb
     direction 0.707107 -6.35008e-011 0.707107   
     length 0.741954   
     axis -90 45 2.85299e-015   XYZ
    dof rx rz
    limits (-45.0 45.0)
           (-45.0 45.0)
  end
  begin
     id 24 
     name rclavicle
     direction -0.888531 0.455324 -0.0565039   
     length 3.20126  
     axis 0 0 0   XYZ 
    dof ry rz
    limits (-10.0 20.0)
           (-20.0 0.0)
  end
  begin
     id 25 
     name rhumerus
     direction -1 -4.48946e-011 -8.98298e-028  
     length 5.3519   
     axis 180 30 90   XYZ
    dof rx ry rz
    limits (-90.0 60.0)
           (-90.0 90.0)
           (-90.0 90.0)
  end
  begin
     id 26 
     name rradius
     direction -1 -4.4899e-011 -3.18779e-027   
     length 3.02531   
     axis 180 30 90   XYZ
    dof rx
    limits (-10.0 170.0)
  end
  begin
     id 27 
     name rwrist
     direction -1 -4.4897e-011 -1.03764e-026   
     length 1.51266   
     axis 9.09556e-015 -90 -90   XYZ
    dof ry
    limits (-180.0 0.0)
  end
  begin
     id 28
     name rhand
     direction -1 -4.48941e-011 -2.07528e-026   
     length 0.78389   
     axis 1.3242e-014 -90 -90   XYZ
    dof rx rz
    limits (-90.0 90.0)
           (-45.0 45.0)
  end
  begin
     id 29
     name rfingers
     direction -1 -4.49012e-011 -4.15056e-026   
     length 0.631992   
     axis 2.64841e-014 -90 -90   XYZ
    dof rx
    limits (0.0 90.0)
  end
  begin
     id 30
     name rthumb
     direction -0.707107 -6.3496e-011 0.707107   
     length 0.907418   
     axis -90 -45 -2.85299e-015   XYZ
    dof rx rz
    limits (-45.0 45.0)
           (-45.0 45.0)
  end
:hierarchy
  begin
    root lhipjoint rhipjoint lowerback
    lhipjoint lfemur
    lfemur ltibia
    ltibia lfoot
    lfoot ltoes
    rhipjoint rfemur
    rfemur rtibia
    rtibia rfoot
    rfoot rtoes
    lowerback upperback
    upperback thorax
    thorax lowerneck lclavicle rclavicle
    lowerneck upperneck
    upperneck head
    lclavicle lhumerus
    lhumerus lradius
    lradius lwrist
    lwrist lhand lthumb
    lhand lfingers
    rclavicle rhumerus
    rhumerus rradius
    rradius rwrist
    rwrist rhand rthumb
    rhand rfingers
  end

#!OML:ASF E:\Style3\Style3.ASF
:FULLY-SPECIFIED
:DEGREES
1
root 0.39016 17.8347 0.108515 -33.6904 87.6216 -51.5247
lowerback -10.4057 -1.42634 -3.54078
upperback -10.6538 -1.04988 1.68445
thorax -5.27359 0.0249754 3.66907
lowerneck -8.87838 -2.42711 -6.31196
upperneck 18.9389 -3.95066 9.95372
head 7.58467 -1.3256 3.99688
rclavicle 1.04735e-014 -1.98785e-015
rhumerus -59.9792 -31.9254 -37.9458
rradius 16.6269
rwrist 15.392
rhand -28.1044 33.1775
rfingers 7.12502
rthumb -1.48675 3.2029
lclavicle 1.04735e-014 -1.98785e-015
lhumerus -55.6401 21.5361 58.5341
lradius 29.7278
lwrist 3.39664
lhand -20.1768 10.3922
lfingers 7.12502
lthumb 6.16909 40.2824
rfemur -15.8215 12.3442 16.6643
rtibia 11.4784
rfoot -12.6236 -21.8381
rtoes -14.821
lfemur -8.63366 -21.3977 -13.5281
ltibia 1.43125e-014
lfoot -11.5204 29.6197
ltoes -6.45061
2
root 0.392348 17.8359 0.10688 -34.4741 87.6618 -52.3129
lowerback -10.4727 -1.44128 -3.48303
upperback -10.6385 -1.07106 1.67753
thorax -5.21853 0.00874291 3.62694
lowerneck -8.93366 -2.4187 -6.3381
upperneck 19.0558 -3.94141 9.97165
head 7.63294 -1.31701 4.01083
rclavicle -3.06874e-015 1.98785e-016
rhumerus -59.6041 -31.4567 -38.6943
rradius 17.0188
rwrist 15.6373
rhand -27.7495 32.7102
rfingers 7.12502
rthumb -1.14395 2.73352
lclavicle -3.06874e-015 1.98785e-016
lhumerus -55.3793 21.3881 58.7828
lradius 29.9026
lwrist 3.91909
lhand -20.2234 10.6034
lfingers 7.12502
lthumb 6.12415 40.4949
rfemur -15.8115 12.2355 16.6724
rtibia 11.4847
rfoot -12.6064 -21.7874
rtoes -14.9556
lfemur -8.66109 -21.4487 -13.5204
ltibia -1.27222e-014
lfoot -11.5332 29.6146
ltoes -6.30171
3
root 0.392976 17.8365 0.105797 -35.8963 87.6725 -53.6986
lowerback -10.4681 -1.43965 -3.42192
upperback -10.6131 -1.07462 1.67934
thorax -5.19341 0.0011138 3.59407
lowerneck -8.94849 -2.41305 -6.25796
upperneck 19.0932 -3.93252 9.89094
head 7.64419 -1.31297 3.97142
rclavicle -6.88292e-015 4.96962e-015
rhumerus -58.8949 -30.459 -40.2138
rradius 17.4638
rwrist 14.8323
rhand -27.4462 32.5649
rfingers 7.12502
rthumb -0.850994 2.58688
lclavicle -6.88292e-015 4.96962e-015
lhumerus -55.1279 21.1578 59.1268
lradius 30.1842
lwrist 4.45094
lhand -20.3553 10.7372
lfingers 7.12502
lthumb 5.9968 40.6323
rfemur -15.7551 12.2432 16.711
rtibia 11.475
rfoot -12.6421 -21.8072
rtoes -14.8044
lfemur -8.62933 -21.4939 -13.493
ltibia 9.54166e-015
lfoot -11.5621 29.6212
ltoes -6.30111
4
root 0.394951 17.8374 0.104963 -36.5773 87.6706 -54.3746
lowerback -10.5415 -1.42219 -3.3207
upperback -10.5928 -1.05622 1.64942
thorax -5.13356 0.000830941 3.50551
lowerneck -8.96178 -2.4017 -6.16799
upperneck 19.1673 -3.92231 9.83091
head 7.66726 -1.30444 3.93835
rclavicle 4.26145e-015 9.93923e-017
rhumerus -58.4725 -29.7149 -41.327
rradius 17.868
rwrist 14.2229
rhand -26.8652 32.5818
rfingers 7.12502
rthumb -0.289927 2.60222
lclavicle 4.26145e-015 9.93923e-017
lhumerus -54.9409 20.9294 59.3792
lradius 30.5257
lwrist 4.90024
lhand -20.3819 10.694
lfingers 7.12502
lthumb 5.97113 40.5899
rfemur -15.7409 12.1762 16.7534
rtibia 11.4818
rfoot -12.5583 -21.8089
rtoes -15.1226
lfemur -8.61262 -21.5102 -13.4772
ltibia 9.54166e-015
lfoot -11.6545 29.6217
ltoes -6.05695
5
root 0.396581 17.8375 0.107266 -36.1548 87.6796 -53.9406
lowerback -10.5767 -1.41599 -3.35762
upperback -10.5751 -1.0452 1.6498
thorax -5.09568 0.00733314 3.52682
lowerneck -9.00641 -2.39282 -6.14323
upperneck 19.2529 -3.91299 9.81434
head 7.70193 -1.29626 3.93123
rclavicle -3.10601e-016 7.65321e-015
rhumerus -58.0839 -28.9963 -42.375
rradius 18.2816
rwrist 13.8314
rhand -26.5265 32.6335
rfingers 7.12502
rthumb 0.0372033 2.65372
lclavicle -3.10601e-016 7.65321e-015
lhumerus -54.7693 20.7374 59.6233
lradius 30.8263
lwrist 5.38259
lhand -20.4111 10.4983
lfingers 7.12502
lthumb 5.94288 40.3949
rfemur -15.7285 12.1766 16.7529
rtibia 11.472
rfoot -12.3513 -21.8769
rtoes -15.8023
lfemur -8.59938 -21.5095 -13.5072
ltibia -3.49861e-014
lfoot -11.4146 29.6962
ltoes -6.71732
6
root 0.399603 17.8367 0.110301 -36.5936 87.6838 -54.3567
lowerback -10.6057 -1.43083 -3.36859
upperback -10.5769 -1.06208 1.66501
thorax -5.08011 0.000194852 3.54762
lowerneck -9.03117 -2.384 -6.09757
upperneck 19.3768 -3.90147 9.75661
head 7.74425 -1.28867 3.90777
rclavicle -3.01904e-015 8.94531e-016
rhumerus -57.5423 -27.9659 -43.8825
rradius 18.8146
rwrist 13.069
rhand -26.7193 32.7949
rfingers 7.12502
rthumb -0.148983 2.81523
lclavicle -3.01904e-015 8.94531e-016
lhumerus -54.6608 20.5693 59.7873
lradius 31.0621
lwrist 5.73133
lhand -20.4175 10.5139
lfingers 7.12502
lthumb 5.93676 40.4107
rfemur -15.7212 12.3831 16.7479
rtibia 11.5253
rfoot -12.3899 -22.0703
rtoes -16.0244
lfemur -8.56594 -21.5231 -13.4941
ltibia -1.27222e-014
lfoot -11.4539 29.6841
ltoes -6.563
7
root 0.402341 17.8351 0.111995 -37.3736 87.6435 -55.1523
lowerback -10.6744 -1.50791 -3.35596
upperback -10.5998 -1.15697 1.78051
thorax -5.0577 -0.0425389 3.65553
lowerneck -9.06448 -2.31279 -6.1609
upperneck 19.5464 -3.7855 9.68856
head 7.79566 -1.23977 3.91061
rclavicle -8.03835e-015 -1.71452e-014
rhumerus -56.7737 -26.6698 -45.5423
rradius 19.3338
rwrist 12.2178
rhand -26.7827 32.9259
rfingers 7.12502
rthumb -0.210196 2.94622
lclavicle -8.03835e-015 -1.71452e-014
lhumerus -54.7066 20.546 59.9449
lradius 31.2715
lwrist 6.03563
lhand -20.6263 10.6659
lfingers 7.12502
lthumb 5.73514 40.5683
rfemur -15.7521 12.4859 16.7977
rtibia 11.5746
rfoot -12.4347 -22.1884
rtoes -15.9846
lfemur -8.57544 -21.5066 -13.428
ltibia -7.95139e-015
lfoot -11.4821 29.678
ltoes -6.42241
8
root 0.403563 17.8355 0.110557 -36.1198 87.6932 -53.8926
lowerback -10.7134 -1.60917 -3.41711
upperback -10.5925 -1.2845 1.87868
thorax -5.01493 -0.100318 3.78466
lowerneck -9.06332 -2.21811 -6.29213
upperneck 19.6132 -3.62892 9.65383
head 7.80494 -1.17754 3.93801
rclavicle -1.66824e-014 9.46712e-015
rhumerus -56.0612 -25.4988 -46.934
rradius 19.8337
rwrist 11.5026
rhand -26.3588 33.2066
rfingers 7.12502
rthumb 0.19918 3.22695
lclavicle -1.66824e-014 9.46712e-015
lhumerus -54.7688 20.6178 60.1066
lradius 31.473
lwrist 6.39937
lhand -20.8989 10.6073
lfingers 7.12502
lthumb 5.47198 40.5167
rfemur -15.7449 12.4074 16.7302
rtibia 11.6025
rfoot -12.4868 -22.1303
rtoes -15.8722
lfemur -8.55261 -21.5207 -13.5236
ltibia 1.27222e-014
lfoot -11.7066 29.6491
ltoes -6.02663
9
root 0.402337 17.8361 0.10687 -36.1091 87.6922 -53.8818
lowerback -10.6996 -1.59214 -3.31569
upperback -10.5995 -1.26858 1.8706
thorax -5.03272 -0.0984931 3.72028
lowerneck -9.05475 -2.21572 -6.33461
upperneck 19.6515 -3.6268 9.68952
head 7.81706 -1.17537 3.95862
rclavicle -9.39413e-015 -5.96354e-015
rhumerus -55.5878 -24.4684 -48.2977
rradius 20.377
rwrist 10.4704
rhand -26.4278 33.2518
rfingers 7.12502
rthumb 0.132589 3.27213
lclavicle -9.39413e-015 -5.96354e-015
lhumerus -54.6342 20.6161 60.1501
lradius 31.5098
lwrist 6.42886
lhand -21.0493 10.5203
lfingers 7.12502
lthumb 5.32672 40.4334
rfemur -15.7577 12.3211 16.7328
rtibia 11.6426
rfoot -12.4267 -22.1035
rtoes -16.0493
lfemur -8.55072 -21.5247 -13.5487
ltibia 4.29375e-014
lfoot -11.5243 29.7339
ltoes -6.71468
10
root 0.400043 17.8358 0.105081 -35.5754 87.7148 -53.3426
lowerback -10.6458 -1.63542 -3.29934
upperback -10.6278 -1.32627 1.92601
thorax -5.08711 -0.124246 3.76699
lowerneck -9.07469 -2.16003 -6.45787
upperneck 19.731 -3.53797 9.72269
head 7.84134 -1.1372 4.00157
rclavicle -1.0569e-014 -3.89494e-015
rhumerus -55.0397 -23.3121 -49.6399
rradius 20.8674
rwrist 9.5112
rhand -26.3049 32.8351
rfingers 7.12502
rthumb 0.251234 2.85552
lclavicle -1.0569e-014 -3.89494e-015
lhumerus -54.6577 20.806 60.0309
lradius 31.507
lwrist 6.17107
lhand -20.8693 10.2994
lfingers 7.12502
lthumb 5.50051 40.208
rfemur -15.7798 12.2534 16.7028
rtibia 11.6912
rfoot -12.4117 -22.0369
rtoes -16.1123
lfemur -8.54739 -21.5331 -13.592
ltibia -2.70347e-014
lfoot -11.4837 29.7199
ltoes -6.68607
11
root 0.401962 17.837 0.105993 -34.6627 87.6965 -52.4293
lowerback -10.6679 -1.69312 -3.33685
upperback -10.6364 -1.39679 2.01454
thorax -5.07612 -0.153574 3.87679
lowerneck -9.10973 -2.07302 -6.52635
upperneck 19.797 -3.40696 9.72099
head 7.85851 -1.07835 4.02699
rclavicle 5.05037e-015 1.18774e-014
rhumerus -54.5839 -22.4852 -50.5821
rradius 21.1974
rwrist 9.12207
rhand -25.7326 32.7732
rfingers 7.12502
rthumb 0.804032 2.79497
lclavicle 5.05037e-015 1.18774e-014
lhumerus -54.7002 20.8981 60.058
lradius 31.6244
lwrist 6.2035
lhand -20.9261 10.0516
lfingers 7.12502
lthumb 5.44572 39.9617
rfemur -15.7968 12.3882 16.6651
rtibia 11.7163
rfoot -12.5984 -22.042
rtoes -15.7387
lfemur -8.52142 -21.498 -13.6177
ltibia 4.77083e-015
lfoot -11.3393 29.7225
ltoes -6.97647
